<svg width="30" height="30" viewBox="0 0 30 30" fill="none" xmlns="http://www.w3.org/2000/svg">
<path d="M30 25.8333C30 28.135 28.135 30 25.8333 30H4.16667C1.86583 30 0 28.135 0 25.8333V4.16667C0 1.865 1.86583 0 4.16667 0H25.8333C28.135 0 30 1.865 30 4.16667V25.8333Z" fill="#0078D4"/>
<path d="M5 10.8333H9.16667V25H5V10.8333ZM7.07083 9.16667H7.0475C5.80417 9.16667 5 8.24 5 7.0825C5 5.9 5.82917 5 7.095 5C8.3625 5 9.14333 5.9 9.16667 7.0825C9.16667 8.23917 8.3625 9.16667 7.07083 9.16667ZM25 25H20.8333V17.4175C20.8333 15.5858 19.8125 14.3358 18.1733 14.3358C16.9225 14.3358 16.2458 15.1792 15.9175 15.9942C15.7975 16.2858 15.8333 17.0925 15.8333 17.5V25H11.6667V10.8333H15.8333V13.0133C16.4342 12.0833 17.375 10.8333 19.7817 10.8333C22.7633 10.8333 24.9992 12.7083 24.9992 16.895L25 25Z" fill="white"/>
</svg>
