<svg width="1439" height="261" viewBox="0 0 1439 261" fill="none" xmlns="http://www.w3.org/2000/svg">
<rect width="1440" height="261" transform="translate(-1)" fill="#0943FF" fill-opacity="0.71"/>
<path d="M91.8135 106.432C89.1495 106.432 86.8455 105.88 84.9015 104.776C82.9575 103.648 81.4575 102.064 80.4015 100.024C79.3455 97.96 78.8175 95.524 78.8175 92.716C78.8175 89.932 79.3695 87.508 80.4735 85.444C81.5775 83.38 83.1255 81.784 85.1175 80.656C87.1095 79.504 89.4255 78.928 92.0655 78.928C94.2975 78.928 96.2775 79.336 98.0055 80.152C99.7575 80.944 101.185 82.072 102.289 83.536C103.393 85 104.077 86.728 104.341 88.72H98.1855C97.8015 87.376 97.0575 86.344 95.9535 85.624C94.8735 84.904 93.5295 84.544 91.9215 84.544C90.4815 84.544 89.2335 84.868 88.1775 85.516C87.1455 86.164 86.3535 87.1 85.8015 88.324C85.2495 89.524 84.9735 90.976 84.9735 92.68C84.9735 94.336 85.2495 95.776 85.8015 97C86.3775 98.224 87.1815 99.172 88.2135 99.844C89.2695 100.492 90.5055 100.816 91.9215 100.816C93.5535 100.816 94.9335 100.444 96.0615 99.7C97.2135 98.932 97.9695 97.888 98.3295 96.568H104.377C104.065 98.536 103.333 100.264 102.181 101.752C101.053 103.24 99.6015 104.392 97.8255 105.208C96.0495 106.024 94.0455 106.432 91.8135 106.432ZM112.962 106H107.418V78.856H112.998V89.872C113.55 89.104 114.306 88.504 115.266 88.072C116.25 87.64 117.33 87.424 118.506 87.424C120.642 87.424 122.298 88.084 123.474 89.404C124.674 90.7 125.274 92.524 125.274 94.876V106H119.73V96.208C119.73 95.44 119.598 94.78 119.334 94.228C119.07 93.676 118.698 93.244 118.218 92.932C117.762 92.62 117.21 92.464 116.562 92.464C115.842 92.464 115.206 92.62 114.654 92.932C114.126 93.22 113.706 93.64 113.394 94.192C113.106 94.744 112.962 95.392 112.962 96.136V106ZM134.686 106.468C132.79 106.468 131.278 105.952 130.15 104.92C129.046 103.864 128.494 102.46 128.494 100.708C128.494 99.052 129.058 97.732 130.186 96.748C131.338 95.764 132.994 95.188 135.154 95.02L140.194 94.624V94.336C140.194 93.736 140.074 93.244 139.834 92.86C139.594 92.452 139.246 92.152 138.79 91.96C138.358 91.744 137.806 91.636 137.134 91.636C135.958 91.636 135.058 91.852 134.434 92.284C133.834 92.716 133.534 93.34 133.534 94.156H128.926C128.926 92.788 129.274 91.6 129.97 90.592C130.666 89.584 131.65 88.804 132.922 88.252C134.218 87.7 135.718 87.424 137.422 87.424C139.174 87.424 140.65 87.736 141.85 88.36C143.074 88.984 143.998 89.896 144.622 91.096C145.27 92.296 145.594 93.76 145.594 95.488V106H140.698L140.338 103.624C140.05 104.44 139.366 105.124 138.286 105.676C137.23 106.204 136.03 106.468 134.686 106.468ZM136.63 102.364C137.686 102.364 138.55 102.112 139.222 101.608C139.894 101.08 140.23 100.3 140.23 99.268V98.296L137.422 98.548C136.222 98.644 135.37 98.848 134.866 99.16C134.386 99.448 134.146 99.88 134.146 100.456C134.146 101.104 134.35 101.584 134.758 101.896C135.166 102.208 135.79 102.364 136.63 102.364ZM161.954 88V93.22H160.19C158.606 93.22 157.358 93.604 156.446 94.372C155.558 95.14 155.114 96.412 155.114 98.188V106H149.57V88.036H154.79L155.222 91.888H154.718C154.958 90.688 155.498 89.704 156.338 88.936C157.202 88.144 158.366 87.748 159.83 87.748C160.166 87.748 160.502 87.772 160.838 87.82C161.198 87.844 161.57 87.904 161.954 88ZM163.769 88H176.153V92.608H163.769V88ZM172.733 106H167.189V82.42H172.733V106ZM186.821 106.468C185.021 106.468 183.413 106.06 181.997 105.244C180.605 104.428 179.501 103.312 178.685 101.896C177.893 100.456 177.497 98.812 177.497 96.964C177.497 95.092 177.881 93.448 178.649 92.032C179.441 90.592 180.533 89.464 181.925 88.648C183.317 87.832 184.913 87.424 186.713 87.424C188.609 87.424 190.241 87.82 191.609 88.612C192.977 89.38 194.033 90.484 194.777 91.924C195.521 93.34 195.893 95.032 195.893 97V98.404L180.413 98.476L180.485 95.056H190.385C190.385 94.096 190.061 93.34 189.413 92.788C188.765 92.212 187.877 91.924 186.749 91.924C185.813 91.924 185.045 92.104 184.445 92.464C183.869 92.824 183.437 93.388 183.149 94.156C182.861 94.9 182.717 95.86 182.717 97.036C182.717 98.716 183.053 99.964 183.725 100.78C184.421 101.572 185.489 101.968 186.929 101.968C187.985 101.968 188.861 101.788 189.557 101.428C190.253 101.068 190.697 100.564 190.889 99.916H195.965C195.653 101.908 194.669 103.504 193.013 104.704C191.357 105.88 189.293 106.468 186.821 106.468ZM211.56 88V93.22H209.796C208.212 93.22 206.964 93.604 206.052 94.372C205.164 95.14 204.72 96.412 204.72 98.188V106H199.176V88.036H204.396L204.828 91.888H204.324C204.564 90.688 205.104 89.704 205.944 88.936C206.808 88.144 207.972 87.748 209.436 87.748C209.772 87.748 210.108 87.772 210.444 87.82C210.804 87.844 211.176 87.904 211.56 88ZM222.188 106.468C220.388 106.468 218.78 106.06 217.364 105.244C215.972 104.428 214.868 103.312 214.052 101.896C213.26 100.456 212.864 98.812 212.864 96.964C212.864 95.092 213.248 93.448 214.016 92.032C214.808 90.592 215.9 89.464 217.292 88.648C218.684 87.832 220.28 87.424 222.08 87.424C223.976 87.424 225.608 87.82 226.976 88.612C228.344 89.38 229.4 90.484 230.144 91.924C230.888 93.34 231.26 95.032 231.26 97V98.404L215.78 98.476L215.852 95.056H225.752C225.752 94.096 225.428 93.34 224.78 92.788C224.132 92.212 223.244 91.924 222.116 91.924C221.18 91.924 220.412 92.104 219.812 92.464C219.236 92.824 218.804 93.388 218.516 94.156C218.228 94.9 218.084 95.86 218.084 97.036C218.084 98.716 218.42 99.964 219.092 100.78C219.788 101.572 220.856 101.968 222.296 101.968C223.352 101.968 224.228 101.788 224.924 101.428C225.62 101.068 226.064 100.564 226.256 99.916H231.332C231.02 101.908 230.036 103.504 228.38 104.704C226.724 105.88 224.66 106.468 222.188 106.468ZM242.103 106.468C240.375 106.468 238.875 106.084 237.603 105.316C236.331 104.548 235.335 103.468 234.615 102.076C233.919 100.66 233.571 99.004 233.571 97.108C233.571 95.188 233.931 93.508 234.651 92.068C235.371 90.604 236.391 89.464 237.711 88.648C239.055 87.832 240.639 87.424 242.463 87.424C243.591 87.424 244.635 87.628 245.595 88.036C246.579 88.444 247.335 88.984 247.863 89.656V78.856H253.407V106H248.187L247.899 103.696C247.419 104.512 246.651 105.184 245.595 105.712C244.563 106.216 243.399 106.468 242.103 106.468ZM243.435 101.392C244.299 101.392 245.055 101.212 245.703 100.852C246.375 100.468 246.891 99.94 247.251 99.268C247.635 98.572 247.827 97.78 247.827 96.892C247.827 95.98 247.635 95.188 247.251 94.516C246.891 93.844 246.375 93.328 245.703 92.968C245.055 92.584 244.299 92.392 243.435 92.392C242.571 92.392 241.815 92.584 241.167 92.968C240.519 93.352 240.015 93.88 239.655 94.552C239.319 95.224 239.151 96.004 239.151 96.892C239.151 97.78 239.319 98.56 239.655 99.232C240.015 99.904 240.519 100.432 241.167 100.816C241.815 101.2 242.571 101.392 243.435 101.392ZM272.534 106.468C270.638 106.468 269.126 105.952 267.998 104.92C266.894 103.864 266.342 102.46 266.342 100.708C266.342 99.052 266.906 97.732 268.034 96.748C269.186 95.764 270.842 95.188 273.002 95.02L278.042 94.624V94.336C278.042 93.736 277.922 93.244 277.682 92.86C277.442 92.452 277.094 92.152 276.638 91.96C276.206 91.744 275.654 91.636 274.982 91.636C273.806 91.636 272.906 91.852 272.282 92.284C271.682 92.716 271.382 93.34 271.382 94.156H266.774C266.774 92.788 267.122 91.6 267.818 90.592C268.514 89.584 269.498 88.804 270.77 88.252C272.066 87.7 273.566 87.424 275.27 87.424C277.022 87.424 278.498 87.736 279.698 88.36C280.922 88.984 281.846 89.896 282.47 91.096C283.118 92.296 283.442 93.76 283.442 95.488V106H278.546L278.186 103.624C277.898 104.44 277.214 105.124 276.134 105.676C275.078 106.204 273.878 106.468 272.534 106.468ZM274.478 102.364C275.534 102.364 276.398 102.112 277.07 101.608C277.742 101.08 278.078 100.3 278.078 99.268V98.296L275.27 98.548C274.07 98.644 273.218 98.848 272.714 99.16C272.234 99.448 271.994 99.88 271.994 100.456C271.994 101.104 272.198 101.584 272.606 101.896C273.014 102.208 273.638 102.364 274.478 102.364ZM286.446 96.928C286.446 95.08 286.842 93.448 287.634 92.032C288.426 90.592 289.506 89.464 290.874 88.648C292.266 87.832 293.862 87.424 295.662 87.424C298.326 87.424 300.486 88.108 302.142 89.476C303.798 90.844 304.71 92.704 304.878 95.056H299.298C299.106 94.144 298.722 93.472 298.146 93.04C297.594 92.608 296.838 92.392 295.878 92.392C295.11 92.392 294.426 92.584 293.826 92.968C293.25 93.328 292.806 93.844 292.494 94.516C292.182 95.188 292.026 95.992 292.026 96.928C292.026 97.888 292.17 98.716 292.458 99.412C292.77 100.084 293.202 100.6 293.754 100.96C294.33 101.32 295.014 101.5 295.806 101.5C296.79 101.5 297.57 101.284 298.146 100.852C298.746 100.396 299.13 99.724 299.298 98.836H304.878C304.758 100.348 304.29 101.68 303.474 102.832C302.682 103.96 301.626 104.848 300.306 105.496C298.986 106.144 297.486 106.468 295.806 106.468C293.91 106.468 292.254 106.072 290.838 105.28C289.446 104.488 288.366 103.384 287.598 101.968C286.83 100.528 286.446 98.848 286.446 96.928ZM306.942 96.928C306.942 95.08 307.338 93.448 308.13 92.032C308.922 90.592 310.002 89.464 311.37 88.648C312.762 87.832 314.358 87.424 316.158 87.424C318.822 87.424 320.982 88.108 322.638 89.476C324.294 90.844 325.206 92.704 325.374 95.056H319.794C319.602 94.144 319.218 93.472 318.642 93.04C318.09 92.608 317.334 92.392 316.374 92.392C315.606 92.392 314.922 92.584 314.322 92.968C313.746 93.328 313.302 93.844 312.99 94.516C312.678 95.188 312.522 95.992 312.522 96.928C312.522 97.888 312.666 98.716 312.954 99.412C313.266 100.084 313.698 100.6 314.25 100.96C314.826 101.32 315.51 101.5 316.302 101.5C317.286 101.5 318.066 101.284 318.642 100.852C319.242 100.396 319.626 99.724 319.794 98.836H325.374C325.254 100.348 324.786 101.68 323.97 102.832C323.178 103.96 322.122 104.848 320.802 105.496C319.482 106.144 317.982 106.468 316.302 106.468C314.406 106.468 312.75 106.072 311.334 105.28C309.942 104.488 308.862 103.384 308.094 101.968C307.326 100.528 306.942 98.848 306.942 96.928ZM327.438 96.964C327.438 95.068 327.858 93.412 328.698 91.996C329.562 90.556 330.738 89.44 332.226 88.648C333.738 87.856 335.454 87.46 337.374 87.46C339.294 87.46 340.998 87.856 342.486 88.648C343.974 89.44 345.138 90.556 345.978 91.996C346.842 93.412 347.274 95.068 347.274 96.964C347.274 98.86 346.842 100.516 345.978 101.932C345.138 103.348 343.974 104.452 342.486 105.244C340.998 106.036 339.294 106.432 337.374 106.432C335.454 106.432 333.738 106.036 332.226 105.244C330.738 104.452 329.562 103.348 328.698 101.932C327.858 100.516 327.438 98.86 327.438 96.964ZM333.018 96.928C333.018 97.84 333.198 98.644 333.558 99.34C333.942 100.012 334.458 100.54 335.106 100.924C335.754 101.284 336.51 101.464 337.374 101.464C338.238 101.464 338.994 101.284 339.642 100.924C340.29 100.54 340.794 100.012 341.154 99.34C341.514 98.644 341.694 97.84 341.694 96.928C341.694 96.016 341.514 95.224 341.154 94.552C340.794 93.88 340.29 93.364 339.642 93.004C338.994 92.62 338.238 92.428 337.374 92.428C336.51 92.428 335.754 92.62 335.106 93.004C334.458 93.364 333.942 93.88 333.558 94.552C333.198 95.224 333.018 96.016 333.018 96.928ZM362.019 88H367.563V106H362.343L361.983 103.984C361.431 104.728 360.639 105.328 359.607 105.784C358.599 106.24 357.555 106.468 356.475 106.468C354.435 106.468 352.815 105.832 351.615 104.56C350.439 103.264 349.851 101.512 349.851 99.304V88H355.395V97.288C355.395 98.752 355.659 99.832 356.187 100.528C356.715 101.2 357.543 101.536 358.671 101.536C359.871 101.536 360.723 101.212 361.227 100.564C361.755 99.892 362.019 98.824 362.019 97.36V88ZM377.267 106H371.723V88H376.943L377.303 89.872C377.855 89.104 378.611 88.504 379.571 88.072C380.555 87.64 381.635 87.424 382.811 87.424C384.947 87.424 386.603 88.084 387.779 89.404C388.979 90.7 389.579 92.524 389.579 94.876V106H384.035V96.208C384.035 95.08 383.747 94.18 383.171 93.508C382.595 92.812 381.827 92.464 380.867 92.464C379.763 92.464 378.887 92.8 378.239 93.472C377.591 94.12 377.267 95.008 377.267 96.136V106ZM391.863 88H404.247V92.608H391.863V88ZM400.827 106H395.283V82.42H400.827V106ZM412.174 106.468C410.278 106.468 408.766 105.952 407.638 104.92C406.534 103.864 405.982 102.46 405.982 100.708C405.982 99.052 406.546 97.732 407.674 96.748C408.826 95.764 410.482 95.188 412.642 95.02L417.682 94.624V94.336C417.682 93.736 417.562 93.244 417.322 92.86C417.082 92.452 416.734 92.152 416.278 91.96C415.846 91.744 415.294 91.636 414.622 91.636C413.446 91.636 412.546 91.852 411.922 92.284C411.322 92.716 411.022 93.34 411.022 94.156H406.414C406.414 92.788 406.762 91.6 407.458 90.592C408.154 89.584 409.138 88.804 410.41 88.252C411.706 87.7 413.206 87.424 414.91 87.424C416.662 87.424 418.138 87.736 419.338 88.36C420.562 88.984 421.486 89.896 422.11 91.096C422.758 92.296 423.082 93.76 423.082 95.488V106H418.186L417.826 103.624C417.538 104.44 416.854 105.124 415.774 105.676C414.718 106.204 413.518 106.468 412.174 106.468ZM414.118 102.364C415.174 102.364 416.038 102.112 416.71 101.608C417.382 101.08 417.718 100.3 417.718 99.268V98.296L414.91 98.548C413.71 98.644 412.858 98.848 412.354 99.16C411.874 99.448 411.634 99.88 411.634 100.456C411.634 101.104 411.838 101.584 412.246 101.896C412.654 102.208 413.278 102.364 414.118 102.364ZM432.603 106H427.059V88H432.279L432.639 89.872C433.191 89.104 433.947 88.504 434.907 88.072C435.891 87.64 436.971 87.424 438.147 87.424C440.283 87.424 441.939 88.084 443.115 89.404C444.315 90.7 444.915 92.524 444.915 94.876V106H439.371V96.208C439.371 95.08 439.083 94.18 438.507 93.508C437.931 92.812 437.163 92.464 436.203 92.464C435.099 92.464 434.223 92.8 433.575 93.472C432.927 94.12 432.603 95.008 432.603 96.136V106ZM447.199 88H459.583V92.608H447.199V88ZM456.163 106H450.619V82.42H456.163V106ZM460.778 100.312H466.034C466.082 100.936 466.334 101.428 466.79 101.788C467.246 102.148 467.894 102.328 468.734 102.328C469.598 102.328 470.234 102.184 470.642 101.896C471.05 101.608 471.254 101.236 471.254 100.78C471.254 100.516 471.146 100.252 470.93 99.988C470.738 99.724 470.306 99.52 469.634 99.376L466.322 98.656C464.666 98.296 463.43 97.72 462.614 96.928C461.798 96.112 461.39 94.912 461.39 93.328C461.39 92.08 461.714 91.024 462.362 90.16C463.034 89.272 463.934 88.6 465.062 88.144C466.19 87.664 467.474 87.424 468.914 87.424C470.306 87.424 471.53 87.676 472.586 88.18C473.666 88.684 474.506 89.392 475.106 90.304C475.706 91.216 476.006 92.284 476.006 93.508H470.75C470.75 92.884 470.57 92.392 470.21 92.032C469.85 91.648 469.334 91.456 468.662 91.456C468.038 91.456 467.534 91.612 467.15 91.924C466.79 92.212 466.61 92.596 466.61 93.076C466.61 93.844 467.258 94.372 468.554 94.66L471.902 95.38C473.39 95.692 474.518 96.232 475.286 97C476.078 97.744 476.474 98.836 476.474 100.276C476.474 101.548 476.138 102.652 475.466 103.588C474.794 104.524 473.858 105.244 472.658 105.748C471.458 106.228 470.078 106.468 468.518 106.468C466.142 106.468 464.258 105.904 462.866 104.776C461.474 103.624 460.778 102.136 460.778 100.312ZM487.927 96.928C487.927 95.08 488.323 93.448 489.115 92.032C489.907 90.592 490.987 89.464 492.355 88.648C493.747 87.832 495.343 87.424 497.143 87.424C499.807 87.424 501.967 88.108 503.623 89.476C505.279 90.844 506.191 92.704 506.359 95.056H500.779C500.587 94.144 500.203 93.472 499.627 93.04C499.075 92.608 498.319 92.392 497.359 92.392C496.591 92.392 495.907 92.584 495.307 92.968C494.731 93.328 494.287 93.844 493.975 94.516C493.663 95.188 493.507 95.992 493.507 96.928C493.507 97.888 493.651 98.716 493.939 99.412C494.251 100.084 494.683 100.6 495.235 100.96C495.811 101.32 496.495 101.5 497.287 101.5C498.271 101.5 499.051 101.284 499.627 100.852C500.227 100.396 500.611 99.724 500.779 98.836H506.359C506.239 100.348 505.771 101.68 504.955 102.832C504.163 103.96 503.107 104.848 501.787 105.496C500.467 106.144 498.967 106.468 497.287 106.468C495.391 106.468 493.735 106.072 492.319 105.28C490.927 104.488 489.847 103.384 489.079 101.968C488.311 100.528 487.927 98.848 487.927 96.928ZM508.423 96.964C508.423 95.068 508.843 93.412 509.683 91.996C510.547 90.556 511.723 89.44 513.211 88.648C514.723 87.856 516.439 87.46 518.359 87.46C520.279 87.46 521.983 87.856 523.471 88.648C524.959 89.44 526.123 90.556 526.963 91.996C527.827 93.412 528.259 95.068 528.259 96.964C528.259 98.86 527.827 100.516 526.963 101.932C526.123 103.348 524.959 104.452 523.471 105.244C521.983 106.036 520.279 106.432 518.359 106.432C516.439 106.432 514.723 106.036 513.211 105.244C511.723 104.452 510.547 103.348 509.683 101.932C508.843 100.516 508.423 98.86 508.423 96.964ZM514.003 96.928C514.003 97.84 514.183 98.644 514.543 99.34C514.927 100.012 515.443 100.54 516.091 100.924C516.739 101.284 517.495 101.464 518.359 101.464C519.223 101.464 519.979 101.284 520.627 100.924C521.275 100.54 521.779 100.012 522.139 99.34C522.499 98.644 522.679 97.84 522.679 96.928C522.679 96.016 522.499 95.224 522.139 94.552C521.779 93.88 521.275 93.364 520.627 93.004C519.979 92.62 519.223 92.428 518.359 92.428C517.495 92.428 516.739 92.62 516.091 93.004C515.443 93.364 514.927 93.88 514.543 94.552C514.183 95.224 514.003 96.016 514.003 96.928ZM537.017 106H531.473V88H536.657L537.269 91.096L536.693 90.448C537.053 89.728 537.701 89.044 538.637 88.396C539.573 87.748 540.785 87.424 542.273 87.424C543.857 87.424 545.129 87.82 546.089 88.612C547.049 89.404 547.757 90.436 548.213 91.708H547.349C547.637 90.436 548.333 89.404 549.437 88.612C550.541 87.82 551.861 87.424 553.397 87.424C555.725 87.424 557.465 88.048 558.617 89.296C559.769 90.52 560.345 92.164 560.345 94.228V106H554.801V95.776C554.801 94.648 554.525 93.808 553.973 93.256C553.445 92.704 552.737 92.428 551.849 92.428C551.321 92.428 550.817 92.548 550.337 92.788C549.857 93.004 549.461 93.4 549.149 93.976C548.837 94.528 548.681 95.32 548.681 96.352V106H543.137V95.776C543.137 94.648 542.873 93.82 542.345 93.292C541.817 92.74 541.109 92.464 540.221 92.464C539.693 92.464 539.177 92.584 538.673 92.824C538.193 93.04 537.797 93.436 537.485 94.012C537.173 94.564 537.017 95.344 537.017 96.352V106ZM569.853 106H564.309V88H569.493L570.105 91.096L569.529 90.448C569.889 89.728 570.537 89.044 571.473 88.396C572.409 87.748 573.621 87.424 575.109 87.424C576.693 87.424 577.965 87.82 578.925 88.612C579.885 89.404 580.593 90.436 581.049 91.708H580.185C580.473 90.436 581.169 89.404 582.273 88.612C583.377 87.82 584.697 87.424 586.233 87.424C588.561 87.424 590.301 88.048 591.453 89.296C592.605 90.52 593.181 92.164 593.181 94.228V106H587.637V95.776C587.637 94.648 587.361 93.808 586.809 93.256C586.281 92.704 585.573 92.428 584.685 92.428C584.157 92.428 583.653 92.548 583.173 92.788C582.693 93.004 582.297 93.4 581.985 93.976C581.673 94.528 581.517 95.32 581.517 96.352V106H575.973V95.776C575.973 94.648 575.709 93.82 575.181 93.292C574.653 92.74 573.945 92.464 573.057 92.464C572.529 92.464 572.013 92.584 571.509 92.824C571.029 93.04 570.633 93.436 570.321 94.012C570.009 94.564 569.853 95.344 569.853 96.352V106ZM597.145 106V88H602.689V106H597.145ZM599.881 85.192C598.993 85.192 598.237 84.892 597.613 84.292C597.013 83.668 596.713 82.912 596.713 82.024C596.713 81.136 597.013 80.392 597.613 79.792C598.237 79.192 598.993 78.892 599.881 78.892C600.745 78.892 601.477 79.192 602.077 79.792C602.701 80.392 603.013 81.136 603.013 82.024C603.013 82.912 602.701 83.668 602.077 84.292C601.477 84.892 600.745 85.192 599.881 85.192ZM605.156 88H617.54V92.608H605.156V88ZM614.12 106H608.576V82.42H614.12V106ZM619.042 88H631.426V92.608H619.042V88ZM628.006 106H622.462V82.42H628.006V106ZM642.094 106.468C640.294 106.468 638.686 106.06 637.27 105.244C635.878 104.428 634.774 103.312 633.958 101.896C633.166 100.456 632.77 98.812 632.77 96.964C632.77 95.092 633.154 93.448 633.922 92.032C634.714 90.592 635.806 89.464 637.198 88.648C638.59 87.832 640.186 87.424 641.986 87.424C643.882 87.424 645.514 87.82 646.882 88.612C648.25 89.38 649.306 90.484 650.05 91.924C650.794 93.34 651.166 95.032 651.166 97V98.404L635.686 98.476L635.758 95.056H645.658C645.658 94.096 645.334 93.34 644.686 92.788C644.038 92.212 643.15 91.924 642.022 91.924C641.086 91.924 640.318 92.104 639.718 92.464C639.142 92.824 638.71 93.388 638.422 94.156C638.134 94.9 637.99 95.86 637.99 97.036C637.99 98.716 638.326 99.964 638.998 100.78C639.694 101.572 640.762 101.968 642.202 101.968C643.258 101.968 644.134 101.788 644.83 101.428C645.526 101.068 645.97 100.564 646.162 99.916H651.238C650.926 101.908 649.942 103.504 648.286 104.704C646.63 105.88 644.566 106.468 642.094 106.468ZM662.009 106.468C660.281 106.468 658.781 106.084 657.509 105.316C656.237 104.548 655.241 103.468 654.521 102.076C653.825 100.66 653.477 99.004 653.477 97.108C653.477 95.188 653.837 93.508 654.557 92.068C655.277 90.604 656.297 89.464 657.617 88.648C658.961 87.832 660.545 87.424 662.369 87.424C663.497 87.424 664.541 87.628 665.501 88.036C666.485 88.444 667.241 88.984 667.769 89.656V78.856H673.313V106H668.093L667.805 103.696C667.325 104.512 666.557 105.184 665.501 105.712C664.469 106.216 663.305 106.468 662.009 106.468ZM663.341 101.392C664.205 101.392 664.961 101.212 665.609 100.852C666.281 100.468 666.797 99.94 667.157 99.268C667.541 98.572 667.733 97.78 667.733 96.892C667.733 95.98 667.541 95.188 667.157 94.516C666.797 93.844 666.281 93.328 665.609 92.968C664.961 92.584 664.205 92.392 663.341 92.392C662.477 92.392 661.721 92.584 661.073 92.968C660.425 93.352 659.921 93.88 659.561 94.552C659.225 95.224 659.057 96.004 659.057 96.892C659.057 97.78 659.225 98.56 659.561 99.232C659.921 99.904 660.425 100.432 661.073 100.816C661.721 101.2 662.477 101.392 663.341 101.392ZM685.312 88H697.696V92.608H685.312V88ZM694.276 106H688.732V82.42H694.276V106ZM699.04 96.964C699.04 95.068 699.46 93.412 700.3 91.996C701.164 90.556 702.34 89.44 703.828 88.648C705.34 87.856 707.056 87.46 708.976 87.46C710.896 87.46 712.6 87.856 714.088 88.648C715.576 89.44 716.74 90.556 717.58 91.996C718.444 93.412 718.876 95.068 718.876 96.964C718.876 98.86 718.444 100.516 717.58 101.932C716.74 103.348 715.576 104.452 714.088 105.244C712.6 106.036 710.896 106.432 708.976 106.432C707.056 106.432 705.34 106.036 703.828 105.244C702.34 104.452 701.164 103.348 700.3 101.932C699.46 100.516 699.04 98.86 699.04 96.964ZM704.62 96.928C704.62 97.84 704.8 98.644 705.16 99.34C705.544 100.012 706.06 100.54 706.708 100.924C707.356 101.284 708.112 101.464 708.976 101.464C709.84 101.464 710.596 101.284 711.244 100.924C711.892 100.54 712.396 100.012 712.756 99.34C713.116 98.644 713.296 97.84 713.296 96.928C713.296 96.016 713.116 95.224 712.756 94.552C712.396 93.88 711.892 93.364 711.244 93.004C710.596 92.62 709.84 92.428 708.976 92.428C708.112 92.428 707.356 92.62 706.708 93.004C706.06 93.364 705.544 93.88 705.16 94.552C704.8 95.224 704.62 96.016 704.62 96.928ZM735.649 88L740.941 103.552L738.241 109.96L729.709 88H735.649ZM730.177 114.64V109.996H733.237C733.861 109.996 734.377 109.912 734.785 109.744C735.193 109.6 735.541 109.348 735.829 108.988C736.117 108.628 736.381 108.124 736.621 107.476L743.929 88H749.689L740.545 109.924C739.801 111.748 738.889 113.068 737.809 113.884C736.753 114.724 735.433 115.144 733.849 115.144C733.177 115.144 732.529 115.096 731.905 115C731.305 114.928 730.729 114.808 730.177 114.64ZM750.087 96.964C750.087 95.068 750.507 93.412 751.347 91.996C752.211 90.556 753.387 89.44 754.875 88.648C756.387 87.856 758.103 87.46 760.023 87.46C761.943 87.46 763.647 87.856 765.135 88.648C766.623 89.44 767.787 90.556 768.627 91.996C769.491 93.412 769.923 95.068 769.923 96.964C769.923 98.86 769.491 100.516 768.627 101.932C767.787 103.348 766.623 104.452 765.135 105.244C763.647 106.036 761.943 106.432 760.023 106.432C758.103 106.432 756.387 106.036 754.875 105.244C753.387 104.452 752.211 103.348 751.347 101.932C750.507 100.516 750.087 98.86 750.087 96.964ZM755.667 96.928C755.667 97.84 755.847 98.644 756.207 99.34C756.591 100.012 757.107 100.54 757.755 100.924C758.403 101.284 759.159 101.464 760.023 101.464C760.887 101.464 761.643 101.284 762.291 100.924C762.939 100.54 763.443 100.012 763.803 99.34C764.163 98.644 764.343 97.84 764.343 96.928C764.343 96.016 764.163 95.224 763.803 94.552C763.443 93.88 762.939 93.364 762.291 93.004C761.643 92.62 760.887 92.428 760.023 92.428C759.159 92.428 758.403 92.62 757.755 93.004C757.107 93.364 756.591 93.88 756.207 94.552C755.847 95.224 755.667 96.016 755.667 96.928ZM784.667 88H790.211V106H784.991L784.631 103.984C784.079 104.728 783.287 105.328 782.255 105.784C781.247 106.24 780.203 106.468 779.123 106.468C777.083 106.468 775.463 105.832 774.263 104.56C773.087 103.264 772.499 101.512 772.499 99.304V88H778.043V97.288C778.043 98.752 778.307 99.832 778.835 100.528C779.363 101.2 780.191 101.536 781.319 101.536C782.519 101.536 783.371 101.212 783.875 100.564C784.403 99.892 784.667 98.824 784.667 97.36V88ZM806.755 88V93.22H804.991C803.407 93.22 802.159 93.604 801.247 94.372C800.359 95.14 799.915 96.412 799.915 98.188V106H794.371V88.036H799.591L800.023 91.888H799.519C799.759 90.688 800.299 89.704 801.139 88.936C802.003 88.144 803.167 87.748 804.631 87.748C804.967 87.748 805.303 87.772 805.639 87.82C805.999 87.844 806.371 87.904 806.755 88ZM817.394 88H837.626V92.608H817.394V88ZM829.346 79.072V83.824C829.034 83.824 828.746 83.824 828.482 83.824C828.242 83.824 828.014 83.824 827.798 83.824C826.838 83.824 826.202 84.088 825.89 84.616C825.578 85.144 825.422 85.792 825.422 86.56V106H819.878V86.56C819.878 84.76 820.166 83.296 820.742 82.168C821.318 81.04 822.134 80.212 823.19 79.684C824.246 79.132 825.47 78.856 826.862 78.856C827.246 78.856 827.642 78.88 828.05 78.928C828.482 78.952 828.914 79 829.346 79.072ZM832.046 106V88H837.626V106H832.046ZM834.854 85.192C833.966 85.192 833.21 84.892 832.586 84.292C831.986 83.668 831.686 82.912 831.686 82.024C831.686 81.136 831.986 80.392 832.586 79.792C833.21 79.192 833.966 78.892 834.854 78.892C835.718 78.892 836.45 79.192 837.05 79.792C837.674 80.392 837.986 81.136 837.986 82.024C837.986 82.912 837.674 83.668 837.05 84.292C836.45 84.892 835.718 85.192 834.854 85.192ZM847.376 106H841.832V88H847.052L847.412 89.872C847.964 89.104 848.72 88.504 849.68 88.072C850.664 87.64 851.744 87.424 852.92 87.424C855.056 87.424 856.712 88.084 857.888 89.404C859.088 90.7 859.688 92.524 859.688 94.876V106H854.144V96.208C854.144 95.08 853.856 94.18 853.28 93.508C852.704 92.812 851.936 92.464 850.976 92.464C849.872 92.464 848.996 92.8 848.348 93.472C847.7 94.12 847.376 95.008 847.376 96.136V106ZM869.1 106.468C867.204 106.468 865.692 105.952 864.564 104.92C863.46 103.864 862.908 102.46 862.908 100.708C862.908 99.052 863.472 97.732 864.6 96.748C865.752 95.764 867.408 95.188 869.568 95.02L874.608 94.624V94.336C874.608 93.736 874.488 93.244 874.248 92.86C874.008 92.452 873.66 92.152 873.204 91.96C872.772 91.744 872.22 91.636 871.548 91.636C870.372 91.636 869.472 91.852 868.848 92.284C868.248 92.716 867.948 93.34 867.948 94.156H863.34C863.34 92.788 863.688 91.6 864.384 90.592C865.08 89.584 866.064 88.804 867.336 88.252C868.632 87.7 870.132 87.424 871.836 87.424C873.588 87.424 875.064 87.736 876.264 88.36C877.488 88.984 878.412 89.896 879.036 91.096C879.684 92.296 880.008 93.76 880.008 95.488V106H875.112L874.752 103.624C874.464 104.44 873.78 105.124 872.7 105.676C871.644 106.204 870.444 106.468 869.1 106.468ZM871.044 102.364C872.1 102.364 872.964 102.112 873.636 101.608C874.308 101.08 874.644 100.3 874.644 99.268V98.296L871.836 98.548C870.636 98.644 869.784 98.848 869.28 99.16C868.8 99.448 868.56 99.88 868.56 100.456C868.56 101.104 868.764 101.584 869.172 101.896C869.58 102.208 870.204 102.364 871.044 102.364ZM889.528 106H883.984V88H889.204L889.564 89.872C890.116 89.104 890.872 88.504 891.832 88.072C892.816 87.64 893.896 87.424 895.072 87.424C897.208 87.424 898.864 88.084 900.04 89.404C901.24 90.7 901.84 92.524 901.84 94.876V106H896.296V96.208C896.296 95.08 896.008 94.18 895.432 93.508C894.856 92.812 894.088 92.464 893.128 92.464C892.024 92.464 891.148 92.8 890.5 93.472C889.852 94.12 889.528 95.008 889.528 96.136V106ZM904.845 96.928C904.845 95.08 905.241 93.448 906.033 92.032C906.825 90.592 907.905 89.464 909.273 88.648C910.665 87.832 912.261 87.424 914.061 87.424C916.725 87.424 918.885 88.108 920.541 89.476C922.197 90.844 923.109 92.704 923.277 95.056H917.697C917.505 94.144 917.121 93.472 916.545 93.04C915.993 92.608 915.237 92.392 914.277 92.392C913.509 92.392 912.825 92.584 912.225 92.968C911.649 93.328 911.205 93.844 910.893 94.516C910.581 95.188 910.425 95.992 910.425 96.928C910.425 97.888 910.569 98.716 910.857 99.412C911.169 100.084 911.601 100.6 912.153 100.96C912.729 101.32 913.413 101.5 914.205 101.5C915.189 101.5 915.969 101.284 916.545 100.852C917.145 100.396 917.529 99.724 917.697 98.836H923.277C923.157 100.348 922.689 101.68 921.873 102.832C921.081 103.96 920.025 104.848 918.705 105.496C917.385 106.144 915.885 106.468 914.205 106.468C912.309 106.468 910.653 106.072 909.237 105.28C907.845 104.488 906.765 103.384 905.997 101.968C905.229 100.528 904.845 98.848 904.845 96.928ZM926.313 106V88H931.857V106H926.313ZM929.049 85.192C928.161 85.192 927.405 84.892 926.781 84.292C926.181 83.668 925.881 82.912 925.881 82.024C925.881 81.136 926.181 80.392 926.781 79.792C927.405 79.192 928.161 78.892 929.049 78.892C929.913 78.892 930.645 79.192 931.245 79.792C931.869 80.392 932.181 81.136 932.181 82.024C932.181 82.912 931.869 83.668 931.245 84.292C930.645 84.892 929.913 85.192 929.049 85.192ZM941.452 106.468C939.556 106.468 938.044 105.952 936.916 104.92C935.812 103.864 935.26 102.46 935.26 100.708C935.26 99.052 935.824 97.732 936.952 96.748C938.104 95.764 939.76 95.188 941.92 95.02L946.96 94.624V94.336C946.96 93.736 946.84 93.244 946.6 92.86C946.36 92.452 946.012 92.152 945.556 91.96C945.124 91.744 944.572 91.636 943.9 91.636C942.724 91.636 941.824 91.852 941.2 92.284C940.6 92.716 940.3 93.34 940.3 94.156H935.692C935.692 92.788 936.04 91.6 936.736 90.592C937.432 89.584 938.416 88.804 939.688 88.252C940.984 87.7 942.484 87.424 944.188 87.424C945.94 87.424 947.416 87.736 948.616 88.36C949.84 88.984 950.764 89.896 951.388 91.096C952.036 92.296 952.36 93.76 952.36 95.488V106H947.464L947.104 103.624C946.816 104.44 946.132 105.124 945.052 105.676C943.996 106.204 942.796 106.468 941.452 106.468ZM943.396 102.364C944.452 102.364 945.316 102.112 945.988 101.608C946.66 101.08 946.996 100.3 946.996 99.268V98.296L944.188 98.548C942.988 98.644 942.136 98.848 941.632 99.16C941.152 99.448 940.912 99.88 940.912 100.456C940.912 101.104 941.116 101.584 941.524 101.896C941.932 102.208 942.556 102.364 943.396 102.364ZM961.88 106H956.336V78.856H961.88V106ZM974.667 96.676C974.667 94.852 975.027 93.244 975.747 91.852C976.491 90.46 977.511 89.368 978.807 88.576C980.127 87.784 981.627 87.388 983.307 87.388C984.723 87.388 985.935 87.676 986.943 88.252C987.975 88.828 988.683 89.584 989.067 90.52L988.527 90.88L988.959 88H994.179V104.848C994.179 106.984 993.783 108.82 992.991 110.356C992.199 111.916 991.071 113.104 989.607 113.92C988.143 114.76 986.379 115.18 984.315 115.18C981.555 115.18 979.311 114.436 977.583 112.948C975.855 111.484 974.859 109.48 974.595 106.936H980.211C980.259 107.944 980.643 108.724 981.363 109.276C982.083 109.852 983.055 110.14 984.279 110.14C985.623 110.14 986.679 109.768 987.447 109.024C988.239 108.28 988.635 107.272 988.635 106V102.184L989.247 102.652C988.863 103.588 988.119 104.344 987.015 104.92C985.911 105.496 984.639 105.784 983.199 105.784C981.519 105.784 980.031 105.4 978.735 104.632C977.463 103.864 976.467 102.796 975.747 101.428C975.027 100.06 974.667 98.476 974.667 96.676ZM980.247 96.532C980.247 97.396 980.427 98.164 980.787 98.836C981.147 99.484 981.639 100 982.263 100.384C982.887 100.768 983.607 100.96 984.423 100.96C985.263 100.96 985.995 100.78 986.619 100.42C987.267 100.036 987.759 99.52 988.095 98.872C988.455 98.2 988.635 97.42 988.635 96.532C988.635 95.644 988.455 94.888 988.095 94.264C987.759 93.616 987.267 93.112 986.619 92.752C985.995 92.392 985.251 92.212 984.387 92.212C983.571 92.212 982.851 92.392 982.227 92.752C981.603 93.112 981.111 93.616 980.751 94.264C980.415 94.912 980.247 95.668 980.247 96.532ZM1010.73 88V93.22H1008.97C1007.38 93.22 1006.14 93.604 1005.22 94.372C1004.34 95.14 1003.89 96.412 1003.89 98.188V106H998.348V88.036H1003.57L1004 91.888H1003.5C1003.74 90.688 1004.28 89.704 1005.12 88.936C1005.98 88.144 1007.14 87.748 1008.61 87.748C1008.94 87.748 1009.28 87.772 1009.62 87.82C1009.98 87.844 1010.35 87.904 1010.73 88ZM1012.04 96.964C1012.04 95.068 1012.46 93.412 1013.3 91.996C1014.16 90.556 1015.34 89.44 1016.82 88.648C1018.34 87.856 1020.05 87.46 1021.97 87.46C1023.89 87.46 1025.6 87.856 1027.08 88.648C1028.57 89.44 1029.74 90.556 1030.58 91.996C1031.44 93.412 1031.87 95.068 1031.87 96.964C1031.87 98.86 1031.44 100.516 1030.58 101.932C1029.74 103.348 1028.57 104.452 1027.08 105.244C1025.6 106.036 1023.89 106.432 1021.97 106.432C1020.05 106.432 1018.34 106.036 1016.82 105.244C1015.34 104.452 1014.16 103.348 1013.3 101.932C1012.46 100.516 1012.04 98.86 1012.04 96.964ZM1017.62 96.928C1017.62 97.84 1017.8 98.644 1018.16 99.34C1018.54 100.012 1019.06 100.54 1019.7 100.924C1020.35 101.284 1021.11 101.464 1021.97 101.464C1022.84 101.464 1023.59 101.284 1024.24 100.924C1024.89 100.54 1025.39 100.012 1025.75 99.34C1026.11 98.644 1026.29 97.84 1026.29 96.928C1026.29 96.016 1026.11 95.224 1025.75 94.552C1025.39 93.88 1024.89 93.364 1024.24 93.004C1023.59 92.62 1022.84 92.428 1021.97 92.428C1021.11 92.428 1020.35 92.62 1019.7 93.004C1019.06 93.364 1018.54 93.88 1018.16 94.552C1017.8 95.224 1017.62 96.016 1017.62 96.928ZM1038.24 106L1032.44 88H1038.28L1039.93 93.868C1040.15 94.636 1040.35 95.452 1040.54 96.316C1040.74 97.18 1040.9 98.068 1041.05 98.98C1041.17 98.332 1041.28 97.792 1041.37 97.36C1041.47 96.904 1041.59 96.424 1041.73 95.92C1041.88 95.392 1042.08 94.708 1042.34 93.868L1044.18 88H1049.87L1051.56 93.868C1051.61 94.012 1051.68 94.312 1051.78 94.768C1051.9 95.2 1052.03 95.692 1052.17 96.244C1052.32 96.772 1052.44 97.288 1052.53 97.792C1052.65 98.296 1052.74 98.692 1052.78 98.98C1052.86 98.548 1052.98 97.972 1053.14 97.252C1053.34 96.508 1053.52 95.812 1053.68 95.164C1053.88 94.516 1054 94.084 1054.04 93.868L1055.77 88H1061.64L1055.34 106H1050.19L1048.46 100.276C1048.01 98.788 1047.66 97.54 1047.42 96.532C1047.18 95.524 1047.04 94.828 1046.99 94.444C1046.92 94.828 1046.77 95.44 1046.56 96.28C1046.34 97.12 1045.94 98.488 1045.37 100.384L1043.64 106H1038.24ZM1062.4 88H1074.78V92.608H1062.4V88ZM1071.36 106H1065.82V82.42H1071.36V106ZM1082.82 106H1077.27V78.856H1082.85V89.872C1083.41 89.104 1084.16 88.504 1085.12 88.072C1086.11 87.64 1087.19 87.424 1088.36 87.424C1090.5 87.424 1092.15 88.084 1093.33 89.404C1094.53 90.7 1095.13 92.524 1095.13 94.876V106H1089.59V96.208C1089.59 95.44 1089.45 94.78 1089.19 94.228C1088.93 93.676 1088.55 93.244 1088.07 92.932C1087.62 92.62 1087.07 92.464 1086.42 92.464C1085.7 92.464 1085.06 92.62 1084.51 92.932C1083.98 93.22 1083.56 93.64 1083.25 94.192C1082.96 94.744 1082.82 95.392 1082.82 96.136V106ZM1114.07 106.468C1112.17 106.468 1110.66 105.952 1109.53 104.92C1108.43 103.864 1107.88 102.46 1107.88 100.708C1107.88 99.052 1108.44 97.732 1109.57 96.748C1110.72 95.764 1112.38 95.188 1114.54 95.02L1119.58 94.624V94.336C1119.58 93.736 1119.46 93.244 1119.22 92.86C1118.98 92.452 1118.63 92.152 1118.17 91.96C1117.74 91.744 1117.19 91.636 1116.52 91.636C1115.34 91.636 1114.44 91.852 1113.82 92.284C1113.22 92.716 1112.92 93.34 1112.92 94.156H1108.31C1108.31 92.788 1108.66 91.6 1109.35 90.592C1110.05 89.584 1111.03 88.804 1112.3 88.252C1113.6 87.7 1115.1 87.424 1116.8 87.424C1118.56 87.424 1120.03 87.736 1121.23 88.36C1122.46 88.984 1123.38 89.896 1124 91.096C1124.65 92.296 1124.98 93.76 1124.98 95.488V106H1120.08L1119.72 103.624C1119.43 104.44 1118.75 105.124 1117.67 105.676C1116.61 106.204 1115.41 106.468 1114.07 106.468ZM1116.01 102.364C1117.07 102.364 1117.93 102.112 1118.6 101.608C1119.28 101.08 1119.61 100.3 1119.61 99.268V98.296L1116.8 98.548C1115.6 98.644 1114.75 98.848 1114.25 99.16C1113.77 99.448 1113.53 99.88 1113.53 100.456C1113.53 101.104 1113.73 101.584 1114.14 101.896C1114.55 102.208 1115.17 102.364 1116.01 102.364ZM1134.5 106H1128.95V88H1134.17L1134.53 89.872C1135.09 89.104 1135.84 88.504 1136.8 88.072C1137.79 87.64 1138.87 87.424 1140.04 87.424C1142.18 87.424 1143.83 88.084 1145.01 89.404C1146.21 90.7 1146.81 92.524 1146.81 94.876V106H1141.27V96.208C1141.27 95.08 1140.98 94.18 1140.4 93.508C1139.83 92.812 1139.06 92.464 1138.1 92.464C1136.99 92.464 1136.12 92.8 1135.47 93.472C1134.82 94.12 1134.5 95.008 1134.5 96.136V106ZM1158.35 106.468C1156.62 106.468 1155.12 106.084 1153.85 105.316C1152.57 104.548 1151.58 103.468 1150.86 102.076C1150.16 100.66 1149.81 99.004 1149.81 97.108C1149.81 95.188 1150.17 93.508 1150.89 92.068C1151.61 90.604 1152.63 89.464 1153.95 88.648C1155.3 87.832 1156.88 87.424 1158.71 87.424C1159.83 87.424 1160.88 87.628 1161.84 88.036C1162.82 88.444 1163.58 88.984 1164.11 89.656V78.856H1169.65V106H1164.43L1164.14 103.696C1163.66 104.512 1162.89 105.184 1161.84 105.712C1160.81 106.216 1159.64 106.468 1158.35 106.468ZM1159.68 101.392C1160.54 101.392 1161.3 101.212 1161.95 100.852C1162.62 100.468 1163.13 99.94 1163.49 99.268C1163.88 98.572 1164.07 97.78 1164.07 96.892C1164.07 95.98 1163.88 95.188 1163.49 94.516C1163.13 93.844 1162.62 93.328 1161.95 92.968C1161.3 92.584 1160.54 92.392 1159.68 92.392C1158.81 92.392 1158.06 92.584 1157.41 92.968C1156.76 93.352 1156.26 93.88 1155.9 94.552C1155.56 95.224 1155.39 96.004 1155.39 96.892C1155.39 97.78 1155.56 98.56 1155.9 99.232C1156.26 99.904 1156.76 100.432 1157.41 100.816C1158.06 101.2 1158.81 101.392 1159.68 101.392ZM1183.34 114.64V88H1188.56L1188.85 90.196C1189.35 89.356 1190.13 88.684 1191.19 88.18C1192.24 87.676 1193.41 87.424 1194.68 87.424C1196.36 87.424 1197.84 87.796 1199.11 88.54C1200.38 89.284 1201.38 90.352 1202.1 91.744C1202.82 93.112 1203.18 94.768 1203.18 96.712C1203.18 98.608 1202.84 100.3 1202.17 101.788C1201.52 103.252 1200.56 104.404 1199.29 105.244C1198.04 106.084 1196.52 106.504 1194.72 106.504C1193.47 106.504 1192.32 106.288 1191.26 105.856C1190.2 105.424 1189.41 104.872 1188.88 104.2V114.64H1183.34ZM1188.92 97C1188.92 97.888 1189.1 98.68 1189.46 99.376C1189.84 100.048 1190.36 100.576 1191.01 100.96C1191.68 101.32 1192.45 101.5 1193.31 101.5C1194.2 101.5 1194.96 101.308 1195.58 100.924C1196.23 100.54 1196.72 100.012 1197.06 99.34C1197.42 98.668 1197.6 97.888 1197.6 97C1197.6 96.112 1197.42 95.332 1197.06 94.66C1196.72 93.988 1196.23 93.46 1195.58 93.076C1194.96 92.692 1194.2 92.5 1193.31 92.5C1192.45 92.5 1191.68 92.692 1191.01 93.076C1190.36 93.436 1189.84 93.952 1189.46 94.624C1189.1 95.296 1188.92 96.088 1188.92 97ZM1218.75 88V93.22H1216.99C1215.4 93.22 1214.16 93.604 1213.24 94.372C1212.36 95.14 1211.91 96.412 1211.91 98.188V106H1206.37V88.036H1211.59L1212.02 91.888H1211.52C1211.76 90.688 1212.3 89.704 1213.14 88.936C1214 88.144 1215.16 87.748 1216.63 87.748C1216.96 87.748 1217.3 87.772 1217.64 87.82C1218 87.844 1218.37 87.904 1218.75 88ZM1220.06 96.964C1220.06 95.068 1220.48 93.412 1221.32 91.996C1222.18 90.556 1223.36 89.44 1224.84 88.648C1226.36 87.856 1228.07 87.46 1229.99 87.46C1231.91 87.46 1233.62 87.856 1235.1 88.648C1236.59 89.44 1237.76 90.556 1238.6 91.996C1239.46 93.412 1239.89 95.068 1239.89 96.964C1239.89 98.86 1239.46 100.516 1238.6 101.932C1237.76 103.348 1236.59 104.452 1235.1 105.244C1233.62 106.036 1231.91 106.432 1229.99 106.432C1228.07 106.432 1226.36 106.036 1224.84 105.244C1223.36 104.452 1222.18 103.348 1221.32 101.932C1220.48 100.516 1220.06 98.86 1220.06 96.964ZM1225.64 96.928C1225.64 97.84 1225.82 98.644 1226.18 99.34C1226.56 100.012 1227.08 100.54 1227.72 100.924C1228.37 101.284 1229.13 101.464 1229.99 101.464C1230.86 101.464 1231.61 101.284 1232.26 100.924C1232.91 100.54 1233.41 100.012 1233.77 99.34C1234.13 98.644 1234.31 97.84 1234.31 96.928C1234.31 96.016 1234.13 95.224 1233.77 94.552C1233.41 93.88 1232.91 93.364 1232.26 93.004C1231.61 92.62 1230.86 92.428 1229.99 92.428C1229.13 92.428 1228.37 92.62 1227.72 93.004C1227.08 93.364 1226.56 93.88 1226.18 94.552C1225.82 95.224 1225.64 96.016 1225.64 96.928ZM1241.81 100.312H1247.07C1247.11 100.936 1247.37 101.428 1247.82 101.788C1248.28 102.148 1248.93 102.328 1249.77 102.328C1250.63 102.328 1251.27 102.184 1251.67 101.896C1252.08 101.608 1252.29 101.236 1252.29 100.78C1252.29 100.516 1252.18 100.252 1251.96 99.988C1251.77 99.724 1251.34 99.52 1250.67 99.376L1247.35 98.656C1245.7 98.296 1244.46 97.72 1243.65 96.928C1242.83 96.112 1242.42 94.912 1242.42 93.328C1242.42 92.08 1242.75 91.024 1243.39 90.16C1244.07 89.272 1244.97 88.6 1246.09 88.144C1247.22 87.664 1248.51 87.424 1249.95 87.424C1251.34 87.424 1252.56 87.676 1253.62 88.18C1254.7 88.684 1255.54 89.392 1256.14 90.304C1256.74 91.216 1257.04 92.284 1257.04 93.508H1251.78C1251.78 92.884 1251.6 92.392 1251.24 92.032C1250.88 91.648 1250.37 91.456 1249.69 91.456C1249.07 91.456 1248.57 91.612 1248.18 91.924C1247.82 92.212 1247.64 92.596 1247.64 93.076C1247.64 93.844 1248.29 94.372 1249.59 94.66L1252.93 95.38C1254.42 95.692 1255.55 96.232 1256.32 97C1257.11 97.744 1257.51 98.836 1257.51 100.276C1257.51 101.548 1257.17 102.652 1256.5 103.588C1255.83 104.524 1254.89 105.244 1253.69 105.748C1252.49 106.228 1251.11 106.468 1249.55 106.468C1247.17 106.468 1245.29 105.904 1243.9 104.776C1242.51 103.624 1241.81 102.136 1241.81 100.312ZM1260.4 114.64V88H1265.62L1265.91 90.196C1266.41 89.356 1267.19 88.684 1268.25 88.18C1269.31 87.676 1270.47 87.424 1271.74 87.424C1273.42 87.424 1274.9 87.796 1276.17 88.54C1277.44 89.284 1278.44 90.352 1279.16 91.744C1279.88 93.112 1280.24 94.768 1280.24 96.712C1280.24 98.608 1279.9 100.3 1279.23 101.788C1278.58 103.252 1277.62 104.404 1276.35 105.244C1275.1 106.084 1273.58 106.504 1271.78 106.504C1270.53 106.504 1269.38 106.288 1268.32 105.856C1267.27 105.424 1266.47 104.872 1265.95 104.2V114.64H1260.4ZM1265.98 97C1265.98 97.888 1266.16 98.68 1266.52 99.376C1266.91 100.048 1267.42 100.576 1268.07 100.96C1268.74 101.32 1269.51 101.5 1270.37 101.5C1271.26 101.5 1272.02 101.308 1272.64 100.924C1273.29 100.54 1273.78 100.012 1274.12 99.34C1274.48 98.668 1274.66 97.888 1274.66 97C1274.66 96.112 1274.48 95.332 1274.12 94.66C1273.78 93.988 1273.29 93.46 1272.64 93.076C1272.02 92.692 1271.26 92.5 1270.37 92.5C1269.51 92.5 1268.74 92.692 1268.07 93.076C1267.42 93.436 1266.91 93.952 1266.52 94.624C1266.16 95.296 1265.98 96.088 1265.98 97ZM1291.78 106.468C1289.98 106.468 1288.37 106.06 1286.96 105.244C1285.57 104.428 1284.46 103.312 1283.65 101.896C1282.85 100.456 1282.46 98.812 1282.46 96.964C1282.46 95.092 1282.84 93.448 1283.61 92.032C1284.4 90.592 1285.49 89.464 1286.89 88.648C1288.28 87.832 1289.87 87.424 1291.67 87.424C1293.57 87.424 1295.2 87.82 1296.57 88.612C1297.94 89.38 1298.99 90.484 1299.74 91.924C1300.48 93.34 1300.85 95.032 1300.85 97V98.404L1285.37 98.476L1285.45 95.056H1295.35C1295.35 94.096 1295.02 93.34 1294.37 92.788C1293.73 92.212 1292.84 91.924 1291.71 91.924C1290.77 91.924 1290.01 92.104 1289.41 92.464C1288.83 92.824 1288.4 93.388 1288.11 94.156C1287.82 94.9 1287.68 95.86 1287.68 97.036C1287.68 98.716 1288.01 99.964 1288.69 100.78C1289.38 101.572 1290.45 101.968 1291.89 101.968C1292.95 101.968 1293.82 101.788 1294.52 101.428C1295.21 101.068 1295.66 100.564 1295.85 99.916H1300.93C1300.61 101.908 1299.63 103.504 1297.97 104.704C1296.32 105.88 1294.25 106.468 1291.78 106.468ZM1316.52 88V93.22H1314.76C1313.17 93.22 1311.92 93.604 1311.01 94.372C1310.12 95.14 1309.68 96.412 1309.68 98.188V106H1304.14V88.036H1309.36L1309.79 91.888H1309.28C1309.52 90.688 1310.06 89.704 1310.9 88.936C1311.77 88.144 1312.93 87.748 1314.4 87.748C1314.73 87.748 1315.07 87.772 1315.4 87.82C1315.76 87.844 1316.14 87.904 1316.52 88ZM1319.32 106V88H1324.87V106H1319.32ZM1322.06 85.192C1321.17 85.192 1320.42 84.892 1319.79 84.292C1319.19 83.668 1318.89 82.912 1318.89 82.024C1318.89 81.136 1319.19 80.392 1319.79 79.792C1320.42 79.192 1321.17 78.892 1322.06 78.892C1322.92 78.892 1323.66 79.192 1324.26 79.792C1324.88 80.392 1325.19 81.136 1325.19 82.024C1325.19 82.912 1324.88 83.668 1324.26 84.292C1323.66 84.892 1322.92 85.192 1322.06 85.192ZM1327.34 88H1339.72V92.608H1327.34V88ZM1336.3 106H1330.76V82.42H1336.3V106ZM1346.24 88L1351.54 103.552L1348.84 109.96L1340.3 88H1346.24ZM1340.77 114.64V109.996H1343.83C1344.46 109.996 1344.97 109.912 1345.38 109.744C1345.79 109.6 1346.14 109.348 1346.42 108.988C1346.71 108.628 1346.98 108.124 1347.22 107.476L1354.52 88H1360.28L1351.14 109.924C1350.4 111.748 1349.48 113.068 1348.4 113.884C1347.35 114.724 1346.03 115.144 1344.44 115.144C1343.77 115.144 1343.12 115.096 1342.5 115C1341.9 114.928 1341.32 114.808 1340.77 114.64Z" fill="white"/>
<rect x="610.5" y="145" width="217" height="48" rx="7" fill="white"/>
<path d="M674.16 174.192C673.029 174.192 672.059 173.952 671.248 173.472C670.437 172.981 669.813 172.304 669.376 171.44C668.939 170.565 668.72 169.557 668.72 168.416C668.72 167.275 668.939 166.267 669.376 165.392C669.813 164.517 670.437 163.835 671.248 163.344C672.059 162.853 673.029 162.608 674.16 162.608C675.504 162.608 676.603 162.944 677.456 163.616C678.32 164.277 678.859 165.211 679.072 166.416H676.816C676.677 165.808 676.379 165.333 675.92 164.992C675.472 164.64 674.875 164.464 674.128 164.464C673.093 164.464 672.283 164.816 671.696 165.52C671.109 166.224 670.816 167.189 670.816 168.416C670.816 169.643 671.109 170.608 671.696 171.312C672.283 172.005 673.093 172.352 674.128 172.352C674.875 172.352 675.472 172.192 675.92 171.872C676.379 171.541 676.677 171.088 676.816 170.512H679.072C678.859 171.664 678.32 172.565 677.456 173.216C676.603 173.867 675.504 174.192 674.16 174.192ZM684.645 174.192C683.877 174.192 683.184 174.016 682.565 173.664C681.957 173.312 681.472 172.827 681.109 172.208C680.757 171.579 680.581 170.853 680.581 170.032C680.581 169.211 680.762 168.491 681.125 167.872C681.488 167.243 681.973 166.752 682.581 166.4C683.2 166.048 683.893 165.872 684.661 165.872C685.418 165.872 686.101 166.048 686.709 166.4C687.328 166.752 687.813 167.243 688.165 167.872C688.528 168.491 688.709 169.211 688.709 170.032C688.709 170.853 688.528 171.579 688.165 172.208C687.813 172.827 687.328 173.312 686.709 173.664C686.09 174.016 685.402 174.192 684.645 174.192ZM684.645 172.416C685.178 172.416 685.642 172.219 686.037 171.824C686.432 171.419 686.629 170.821 686.629 170.032C686.629 169.243 686.432 168.651 686.037 168.256C685.642 167.851 685.184 167.648 684.661 167.648C684.117 167.648 683.648 167.851 683.253 168.256C682.869 168.651 682.677 169.243 682.677 170.032C682.677 170.821 682.869 171.419 683.253 171.824C683.648 172.219 684.112 172.416 684.645 172.416ZM690.54 174V166.064H692.348L692.508 167.408C692.753 166.939 693.105 166.565 693.564 166.288C694.033 166.011 694.583 165.872 695.212 165.872C696.193 165.872 696.956 166.181 697.5 166.8C698.044 167.419 698.316 168.325 698.316 169.52V174H696.268V169.712C696.268 169.029 696.129 168.507 695.852 168.144C695.575 167.781 695.143 167.6 694.556 167.6C693.98 167.6 693.505 167.803 693.132 168.208C692.769 168.613 692.588 169.179 692.588 169.904V174H690.54ZM703.81 174C702.978 174 702.312 173.797 701.81 173.392C701.309 172.987 701.058 172.267 701.058 171.232V167.776H699.698V166.064H701.058L701.298 163.936H703.106V166.064H705.25V167.776H703.106V171.248C703.106 171.632 703.186 171.899 703.346 172.048C703.517 172.187 703.805 172.256 704.21 172.256H705.202V174H703.81ZM709.745 174.192C709.062 174.192 708.502 174.085 708.065 173.872C707.627 173.648 707.302 173.355 707.089 172.992C706.875 172.629 706.769 172.229 706.769 171.792C706.769 171.056 707.057 170.459 707.633 170C708.209 169.541 709.073 169.312 710.225 169.312H712.241V169.12C712.241 168.576 712.086 168.176 711.777 167.92C711.467 167.664 711.083 167.536 710.625 167.536C710.209 167.536 709.846 167.637 709.537 167.84C709.227 168.032 709.035 168.32 708.961 168.704H706.961C707.014 168.128 707.206 167.627 707.537 167.2C707.878 166.773 708.315 166.448 708.849 166.224C709.382 165.989 709.979 165.872 710.641 165.872C711.771 165.872 712.662 166.155 713.313 166.72C713.963 167.285 714.289 168.085 714.289 169.12V174H712.545L712.353 172.72C712.118 173.147 711.787 173.499 711.361 173.776C710.945 174.053 710.406 174.192 709.745 174.192ZM710.209 172.592C710.795 172.592 711.249 172.4 711.569 172.016C711.899 171.632 712.107 171.157 712.193 170.592H710.449C709.905 170.592 709.515 170.693 709.281 170.896C709.046 171.088 708.929 171.328 708.929 171.616C708.929 171.925 709.046 172.165 709.281 172.336C709.515 172.507 709.825 172.592 710.209 172.592ZM720.131 174.192C719.32 174.192 718.606 174.016 717.987 173.664C717.368 173.312 716.878 172.821 716.515 172.192C716.163 171.563 715.987 170.843 715.987 170.032C715.987 169.221 716.163 168.501 716.515 167.872C716.878 167.243 717.368 166.752 717.987 166.4C718.606 166.048 719.32 165.872 720.131 165.872C721.144 165.872 721.998 166.139 722.691 166.672C723.384 167.195 723.827 167.92 724.019 168.848H721.859C721.752 168.464 721.539 168.165 721.219 167.952C720.91 167.728 720.542 167.616 720.115 167.616C719.55 167.616 719.07 167.829 718.675 168.256C718.28 168.683 718.083 169.275 718.083 170.032C718.083 170.789 718.28 171.381 718.675 171.808C719.07 172.235 719.55 172.448 720.115 172.448C720.542 172.448 720.91 172.341 721.219 172.128C721.539 171.915 721.752 171.611 721.859 171.216H724.019C723.827 172.112 723.384 172.832 722.691 173.376C721.998 173.92 721.144 174.192 720.131 174.192ZM729.264 174C728.432 174 727.765 173.797 727.264 173.392C726.762 172.987 726.512 172.267 726.512 171.232V167.776H725.152V166.064H726.512L726.752 163.936H728.56V166.064H730.704V167.776H728.56V171.248C728.56 171.632 728.64 171.899 728.799 172.048C728.97 172.187 729.258 172.256 729.664 172.256H730.656V174H729.264ZM736.322 174V162.8H738.37L743.634 170.688V162.8H745.682V174H743.634L738.37 166.128V174H736.322ZM751.614 174.192C750.846 174.192 750.152 174.016 749.534 173.664C748.926 173.312 748.44 172.827 748.078 172.208C747.726 171.579 747.55 170.853 747.55 170.032C747.55 169.211 747.731 168.491 748.094 167.872C748.456 167.243 748.942 166.752 749.55 166.4C750.168 166.048 750.862 165.872 751.63 165.872C752.387 165.872 753.07 166.048 753.678 166.4C754.296 166.752 754.782 167.243 755.134 167.872C755.496 168.491 755.678 169.211 755.678 170.032C755.678 170.853 755.496 171.579 755.134 172.208C754.782 172.827 754.296 173.312 753.678 173.664C753.059 174.016 752.371 174.192 751.614 174.192ZM751.614 172.416C752.147 172.416 752.611 172.219 753.006 171.824C753.4 171.419 753.598 170.821 753.598 170.032C753.598 169.243 753.4 168.651 753.006 168.256C752.611 167.851 752.152 167.648 751.63 167.648C751.086 167.648 750.616 167.851 750.222 168.256C749.838 168.651 749.646 169.243 749.646 170.032C749.646 170.821 749.838 171.419 750.222 171.824C750.616 172.219 751.08 172.416 751.614 172.416ZM758.78 174L756.46 166.064H758.492L759.868 171.776L761.468 166.064H763.74L765.34 171.776L766.732 166.064H768.764L766.428 174H764.3L762.604 168.064L760.908 174H758.78Z" fill="#012AB1"/>
<path d="M668 176H769.02V176.8H668V176Z" fill="#012AB1"/>
<a href="mailto:harshitn2002@gmail.com">
<rect fill="black" fill-opacity="0" y="1.584" width="101.02" height="20.832"/>
</a>
</svg>
