<svg width="26" height="26" viewBox="0 0 26 26" fill="none" xmlns="http://www.w3.org/2000/svg">
<path d="M4.60039 0.400024C2.28079 0.400024 0.400391 2.28042 0.400391 4.60002V21.4C0.400391 23.7196 2.28079 25.6 4.60039 25.6H21.4004C23.72 25.6 25.6004 23.7196 25.6004 21.4V4.60002C25.6004 2.28042 23.72 0.400024 21.4004 0.400024H4.60039ZM5.85195 5.80002H10.6145L13.9965 10.6059L18.1004 5.80002H19.6004L14.6738 11.568L20.7488 20.2H15.9875L12.0629 14.6242L7.30039 20.2H5.80039L11.3855 13.6621L5.85195 5.80002ZM8.14883 7.00002L16.6133 19H18.452L9.9875 7.00002H8.14883Z" fill="#392D82"/>
</svg>
